:SAMPLES-PER-SECOND 30
:FULLY-SPECIFIED
:DEGREES
544
root  73.8575 37.4284 3.29992 -179.964 76.0159 -178.053
RightUpLeg  -16.1439 17.9267 -5.21177
RightLeg  49.3031 22.3177 25.1253
RightFoot  -13.2997 0.154831 14.5229
RightToes  -8.73116e-010 0 -3.6325e-017
Spine  25.4028 3.47874 36.0705
Spine1  -22.4006 9.33388 -51.2087
HEad  -176.039 16.4525 52.8196
LeftShoulder1  -31.1095 -26.2843 102.389
LeftArm  -79.5357 7.43953 -94.2643
LeftForeArm  -95.7502 -81.1106 -116.229
LeftHand  -91.6337 -45.7774 128.256
RightShoulder  -4.51373 13.7361 -52.4924
RightArm  -140.81 -24.4985 169.933
RightForeArm  61.7108 24.3448 172.594
RightHand  12.1115 -49.8255 -30.5167
LeftUpLeg  -25.3605 -5.15752 3.99812
LeftLeg  36.6528 -17.4628 -13.154
LeftFoot  1.51401 0.280148 -2.56861
LeftToes  -5.63919e-011 3.32596e-011 1.92487e-011
545
root  73.8565 37.3834 3.86873 179.29 72.4432 -178.034
RightUpLeg  -13.4038 18.1733 -3.57228
RightLeg  47.5397 22.113 23.5963
RightFoot  -14.8004 0.244279 11.4129
RightToes  -8.73116e-010 0 -3.6325e-017
Spine  21.4035 4.19927 34.906
Spine1  -20.3448 9.49722 -48.6971
HEad  -176.802 15.7349 57.6473
LeftShoulder1  -33.3747 -32.287 96.6836
LeftArm  -78.5896 9.97506 -86.6315
LeftForeArm  -115.037 -81.7859 -99.4696
LeftHand  -102.117 -36.3727 147.596
RightShoulder  -9.07384 15.5596 -59.7675
RightArm  -145.618 -23.8412 171.061
RightForeArm  50.1817 27.592 172.718
RightHand  8.68232 -19.6233 -62.4801
LeftUpLeg  -25.4408 -6.16584 4.60714
LeftLeg  37.0851 -19.605 -14.9068
LeftFoot  1.89518 0.44029 -3.89214
LeftToes  -5.63919e-011 3.32596e-011 1.92487e-011
546
root  73.8434 37.4106 4.4178 179.396 68.1797 -177.392
RightUpLeg  -10.3816 16.9129 -1.64833
RightLeg  43.8008 21.2852 20.2428
RightFoot  -16.1402 0.162181 6.58836
RightToes  -8.73116e-010 0 -3.6325e-017
Spine  17.3099 5.54977 33.3705
Spine1  -19.596 9.5134 -40.9745
HEad  -176.3 11.8897 64.0414
LeftShoulder1  -33.2769 -41.5587 82.2969
LeftArm  -74.3919 10.9702 -75.7026
LeftForeArm  -136.943 -81.1722 -75.6184
LeftHand  -103.609 -36.4213 148.21
RightShoulder  -2.11773 9.24037 -32.13
RightArm  -110.652 -31.5344 137.181
RightForeArm  140.52 32.5057 171.516
RightHand  -0.0445826 -12.8062 5.69856
LeftUpLeg  -25.4034 -7.63302 5.22089
LeftLeg  36.4742 -22.2648 -16.4386
LeftFoot  3.09757 0.496521 -4.07678
LeftToes  -5.63919e-011 3.32596e-011 1.92487e-011
547
root  73.6352 37.3947 5.04506 177.467 64.3962 -178.17
RightUpLeg  -7.28068 14.224 -0.0963551
RightLeg  40.3699 19.2554 16.5105
RightFoot  -17.3646 -0.0776921 0.641976
RightToes  -8.73116e-010 0 -3.6325e-017
Spine  18.2857 5.26614 35.4802
Spine1  -23.5584 7.82348 -52.6379
HEad  170.513 11.4268 76.5845
LeftShoulder1  -35.6766 -46.8417 79.9211
LeftArm  -65.8362 3.20647 -63.6792
LeftForeArm  -164.449 -75.247 -34.6424
LeftHand  -103.498 -36.6073 147.697
RightShoulder  1.33986 9.77895 5.26856
RightArm  -100.881 -37.0805 100.424
RightForeArm  141.804 34.7512 171.291
RightHand  0.630959 2.81024 10.8765
LeftUpLeg  -24.6159 -8.54451 5.09259
LeftLeg  35.3592 -25.1612 -17.6825
LeftFoot  4.76299 0.533249 -3.97374
LeftToes  -5.63919e-011 3.32596e-011 1.92487e-011
548
root  73.3599 37.4216 5.77983 176.473 59.7953 -178.428
RightUpLeg  -5.37972 9.42798 1.23968
RightLeg  37.3091 16.2743 12.6792
RightFoot  -17.3967 -0.37283 -4.82826
RightToes  -8.73116e-010 0 -3.6325e-017
Spine  17.827 4.51732 35.2456
Spine1  -24.4638 6.00754 -59.4089
HEad  157.333 12.2546 80.5761
LeftShoulder1  -33.4887 -52.8156 69.8364
LeftArm  -57.1685 -0.682478 -51.9097
LeftForeArm  -151.049 -72.1399 -30.9681
LeftHand  -89.4143 -40.6353 135.847
RightShoulder  0.702095 -1.93008 33.884
RightArm  -72.6715 -31.893 60.7553
RightForeArm  148.229 42.6635 169.095
RightHand  0.803518 4.6627 9.14076
LeftUpLeg  -24.1999 -9.69182 5.07796
LeftLeg  33.4585 -28.507 -18.4771
LeftFoot  6.65128 0.747327 -4.96835
LeftToes  -5.63919e-011 3.32596e-011 1.92487e-011
549
root  72.9395 37.5086 6.56735 175.525 55.6277 -179.063
RightUpLeg  -4.56986 5.97298 1.60846
RightLeg  34.4713 14.3186 10.1149
RightFoot  -17.4825 -0.425661 -5.73196
RightToes  -8.73116e-010 0 -3.6325e-017
Spine  18.3496 3.18624 33.6581
Spine1  -25.358 3.79382 -63.3876
HEad  -155.961 -4.14185 32.2694
LeftShoulder1  -26.296 -56.1919 55.2166
LeftArm  -44.5185 -0.8628 -44.2388
LeftForeArm  -152.814 -69.6016 -26.8576
LeftHand  -94.0721 -41.4993 137.95
RightShoulder  -3.53495 -9.77308 49.7891
RightArm  -55.9565 -20.1943 34.3487
RightForeArm  145.623 53.1213 164.862
RightHand  0.998439 11.9988 6.10551
LeftUpLeg  -23.4887 -10.7922 4.78603
LeftLeg  29.1906 -31.6186 -17.3583
LeftFoot  8.53 1.3475 -7.96684
LeftToes  -5.63919e-011 3.32596e-011 1.92487e-011
550
root  72.4063 37.5845 7.37427 175.2 51.2124 -179.332
RightUpLeg  -4.65333 3.17225 1.65669
RightLeg  32.3675 13.274 8.68094
RightFoot  -17.2188 -0.403657 -5.58755
RightToes  -8.73116e-010 0 -3.6325e-017
Spine  19.3529 1.37084 31.6219
Spine1  -26.0784 1.36065 -64.7716
HEad  -59.0089 26.3537 -12.2043
LeftShoulder1  -20.0699 -56.0917 45.0704
LeftArm  -44.088 0.553463 -41.152
LeftForeArm  179.649 -69.8615 -31.1211
LeftHand  -105.966 -37.8338 145.761
RightShoulder  -7.40543 -14.1055 59.6803
RightArm  -50.1003 -10.8183 27.1609
RightForeArm  141.34 56.4966 162.627
RightHand  1.05515 10.915 6.96117
LeftUpLeg  -22.5172 -11.7735 4.30068
LeftLeg  22.0371 -31.6194 -12.8666
LeftFoot  9.8969 2.66085 -14.4216
LeftToes  -5.63919e-011 3.32596e-011 1.92487e-011
551
root  71.8062 37.6549 8.13143 175.319 47.1264 -179.138
RightUpLeg  -5.29511 -0.786321 1.48337
RightLeg  31.0042 13.1687 8.18041
RightFoot  -16.4309 -0.334577 -5.02367
RightToes  -8.73116e-010 0 -3.6325e-017
Spine  20.8441 -0.175966 29.7013
Spine1  -26.7474 -0.529212 -63.8072
HEad  -53.185 33.4403 -9.43604
LeftShoulder1  -20.2978 -53.9999 46.9467
LeftArm  -44.0303 5.27201 -47.903
LeftForeArm  -172.306 -76.7725 24.4199
LeftHand  -100.798 -69.7793 140.009
RightShoulder  -10.9208 -17.0459 67.5526
RightArm  -48.1197 -3.0607 26.7116
RightForeArm  148.679 56.5968 163.354
RightHand  2.09555 11.5477 13.8689
LeftUpLeg  -20.7434 -9.88257 2.83498
LeftLeg  13.7666 -28.1966 -6.37912
LeftFoot  10.522 4.10782 -21.4544
LeftToes  -5.63919e-011 3.32596e-011 1.92487e-011
552
root  71.1963 37.7682 8.90647 175.519 42.7579 -178.655
RightUpLeg  -5.7651 -5.43975 1.45707
RightLeg  29.4521 13.2861 7.77192
RightFoot  -14.8573 -0.24702 -4.80911
RightToes  -8.73116e-010 0 -3.6325e-017
Spine  21.9815 -1.37989 28.3199
Spine1  -27.2488 -1.48875 -63.2609
HEad  -48.1207 34.6229 -7.45637
LeftShoulder1  -22.3574 -51.4047 53.3103
LeftArm  -44.5228 12.3924 -58.0521
LeftForeArm  41.1718 -72.918 -46.0951
LeftHand  -3.31845 15.4673 39.6045
RightShoulder  -15.0273 -19.6042 76.711
RightArm  -41.2148 10.921 13.4786
RightForeArm  132.089 61.96 155.85
RightHand  0.753688 5.40189 7.38291
LeftUpLeg  -19.3306 -5.27355 0.464987
LeftLeg  9.72276 -24.3751 -2.70441
LeftFoot  9.96178 3.26612 -17.4142
LeftToes  -5.63919e-011 3.32596e-011 1.92487e-011
553
root  70.64 37.9516 9.6609 175.836 37.9646 -178.52
RightUpLeg  -6.44845 -9.8754 1.22054
RightLeg  27.6142 13.0108 7.06635
RightFoot  -13.0124 -0.154815 -4.43155
RightToes  -8.73116e-010 0 -3.6325e-017
Spine  19.0981 -1.59437 23.3481
Spine1  -19.4216 -0.874844 -53.7604
HEad  -48.9395 36.5294 -13.6939
LeftShoulder1  -11.8608 -44.918 31.3302
LeftArm  -36.6102 6.6289 -47.6003
LeftForeArm  49.2202 -77.8363 -60.3889
LeftHand  -1.53494 -0.526972 28.577
RightShoulder  -15.466 -17.89 70.1897
RightArm  -33.2741 33.7171 -2.60361
RightForeArm  94.8551 73.0862 136.318
RightHand  -0.614252 0.646657 -11.3649
LeftUpLeg  -19.1012 -3.08654 -0.562585
LeftLeg  9.75225 -18.1215 -2.26236
LeftFoot  7.48301 1.20535 -7.59663
LeftToes  -5.63919e-011 3.32596e-011 1.92487e-011
554
root  70.1661 38.1498 10.4092 175.757 32.6405 -178.898
RightUpLeg  -6.74427 -14.1268 0.601088
RightLeg  25.4124 12.4586 6.1444
RightFoot  -11.4053 -0.0754138 -3.31036
RightToes  -8.73116e-010 0 -3.6325e-017
Spine  13.4682 -0.574657 3.05871
Spine1  5.68665 0.637439 0.254192
HEad  -70.9421 41.1033 -63.2916
LeftShoulder1  4.89397 -12.7678 -19.5488
LeftArm  -34.8711 -25.4141 -28.6361
LeftForeArm  32.9093 -76.5446 -55.1503
LeftHand  -2.40986 -4.25929 29.8673
RightShoulder  1.37241 -1.82209 7.00284
RightArm  -45.0747 13.6793 30.7942
RightForeArm  120.207 63.2831 155.95
RightHand  -0.518621 -0.193519 -11.5855
LeftUpLeg  -18.5084 -2.59447 -1.13924
LeftLeg  11.0385 -12.039 -1.80349
LeftFoot  4.96818 0.621111 -4.59428
LeftToes  -5.63919e-011 3.32596e-011 1.92487e-011
555
root  69.7285 38.3108 11.0787 176.087 26.7352 -178.756
RightUpLeg  -6.83151 -18.0899 0.406615
RightLeg  22.9041 10.949 4.92978
RightFoot  -9.60596 -0.0191547 -3.11652
RightToes  -8.73116e-010 0 -3.6325e-017
Spine  13.2988 -1.27382 -0.947174
Spine1  6.78276 -2.92999 5.7357
HEad  -66.35 44.2897 -63.9238
LeftShoulder1  -0.890169 6.65653 -33.9867
LeftArm  -17.2276 -39.634 -33.786
LeftForeArm  28.5311 -75.6372 -49.7349
LeftHand  -1.94495 -6.02863 17.3153
RightShoulder  0.386048 -0.501071 4.4507
RightArm  -40.7095 9.40788 38.9689
RightForeArm  125.868 60.5268 158.575
RightHand  -0.46284 -0.47374 -11.1207
LeftUpLeg  -18.2932 -2.47574 -0.729344
LeftLeg  13.9204 -9.03323 -2.08798
LeftFoot  2.41234 0.512734 -4.38041
LeftToes  -5.63919e-011 3.32596e-011 1.92487e-011
556
root  69.2812 38.4486 11.6722 176.523 20.8561 -178.902
RightUpLeg  -6.85704 -19.8253 -0.427589
RightLeg  20.1922 7.2268 3.83437
RightFoot  -8.81687 -0.0409827 -0.832295
RightToes  -8.73116e-010 0 -3.6325e-017
Spine  13.5295 -0.96067 -1.8692
Spine1  6.42578 -2.95747 6.86723
HEad  -55.7105 46.8969 -57.5055
LeftShoulder1  -0.423196 4.53726 -34.7914
LeftArm  -16.2057 -35.6937 -33.4037
LeftForeArm  29.5839 -75.8243 -50.676
LeftHand  0.0446512 1.57537 2.47944
RightShoulder  0.339266 -1.35473 8.37874
RightArm  -38.2594 2.95198 38.8613
RightForeArm  129.587 58.9918 160.02
RightHand  -0.527949 1.68374 -8.7624
LeftUpLeg  -18.4338 -1.04055 -0.238273
LeftLeg  17.5406 -9.18499 -2.93933
LeftFoot  0.152098 0.386109 -3.82885
LeftToes  -5.63919e-011 3.32596e-011 1.92487e-011
557
root  68.8211 38.592 12.1831 176.985 15.2276 -179.199
RightUpLeg  -6.9089 -18.5931 -1.85279
RightLeg  17.9582 0.804228 3.21787
RightFoot  -7.33738 -0.0476918 -0.0416054
RightToes  -8.73116e-010 0 -3.6325e-017
Spine  13.9855 -0.494224 -3.09854
Spine1  5.7555 -2.95876 8.65938
HEad  -43.8016 50.1465 -49.9635
LeftShoulder1  -0.430323 4.49109 -37.2204
LeftArm  -12.0252 -33.5422 -33.2959
LeftForeArm  28.2514 -75.5868 -49.5467
LeftHand  -0.0613424 -0.776117 1.33069
RightShoulder  0.282417 -1.93907 11.0897
RightArm  -36.2295 -4.56622 38.9373
RightForeArm  132.907 57.3599 161.399
RightHand  -0.5713 1.9471 -9.19242
LeftUpLeg  -18.5826 0.0399716 0.708465
LeftLeg  21.0336 -7.67984 -2.92279
LeftFoot  -1.77513 0.217008 -2.47392
LeftToes  -5.63919e-011 3.32596e-011 1.92487e-011
